<svg xmlns="http://www.w3.org/2000/svg" width="21" height="21" fill="none" viewBox="0 0 21 21">
    <path fill="#50AC51" stroke="#fff" stroke-width=".3" d="M18.45 12.145V9.582c1.368-.359 2.382-1.607 2.382-3.087 0-1.759-1.431-3.19-3.19-3.19-.85 0-1.621.334-2.194.876l-2.612-1.21c.273-1.474-.866-2.816-2.343-2.816-1.476 0-2.615 1.342-2.342 2.817l-2.613 1.21c-.572-.543-1.344-.877-2.193-.877-1.759 0-3.19 1.431-3.19 3.19 0 1.48 1.014 2.728 2.383 3.087v2.563c-.918.331-1.575 1.21-1.575 2.241 0 1.314 1.069 2.383 2.382 2.383.57 0 1.095-.202 1.505-.537l2.466 1.147c-.162 1.88 1.326 3.466 3.177 3.466 1.85 0 3.34-1.585 3.178-3.466l2.466-1.147c.41.335.934.537 1.504.537 1.314 0 2.383-1.07 2.383-2.383 0-1.03-.658-1.91-1.575-2.241zM17.64 4.92c.869 0 1.575.707 1.575 1.575 0 .869-.706 1.575-1.575 1.575-.868 0-1.575-.706-1.575-1.575 0-.868.707-1.575 1.575-1.575zm-7.147-3.15c.422 0 .767.345.767.768 0 .423-.345.767-.768.767-.423 0-.767-.344-.767-.767 0-.423.344-.768.767-.768zM1.77 6.495c0-.868.706-1.575 1.574-1.575.869 0 1.575.707 1.575 1.575 0 .869-.706 1.575-1.575 1.575-.868 0-1.574-.706-1.574-1.575zm.807 7.891c0-.423.344-.767.767-.767.424 0 .768.344.768.767 0 .423-.344.767-.768.767-.423 0-.767-.344-.767-.767zm7.915 4.843c-.868 0-1.575-.706-1.575-1.575 0-.868.707-1.575 1.575-1.575.869 0 1.575.707 1.575 1.575 0 .869-.706 1.575-1.575 1.575zm-2.63-3.377l-2.179-1.014c.228-1.18-.453-2.304-1.53-2.693V9.582C5.886 9.128 6.93 7.31 6.396 5.564L8.974 4.37c.882.733 2.158.732 3.04 0l2.576 1.193c-.534 1.747.51 3.564 2.244 4.018v2.563c-1.078.389-1.76 1.514-1.532 2.694l-2.178 1.013c-1.273-1.851-3.99-1.848-5.26 0zm9.778-.699c-.423 0-.767-.344-.767-.767 0-.423.344-.767.767-.767.423 0 .768.344.768.767 0 .423-.345.767-.768.767z"/>
</svg>
