<svg xmlns="http://www.w3.org/2000/svg" width="58" height="43" fill="none" viewBox="0 0 58 43">
    <g filter="url(#prefix__filter0_d)">
        <path fill="#306FC5" d="M54 33.526c0 1.633-1.323 2.956-2.956 2.956H6.956C5.323 36.482 4 35.16 4 33.526V4.956C4 3.323 5.323 2 6.956 2h44.088C52.677 2 54 3.323 54 4.956v28.57z"/>
    </g>
    <path fill="#202121" d="M6.101 33.526V4.956C6.101 3.323 7.425 2 9.057 2H6.955C5.323 2 4 3.323 4 4.956v28.57c0 1.633 1.323 2.956 2.956 2.956h2.101c-1.632 0-2.956-1.323-2.956-2.956z" opacity=".15"/>
    <path fill="#fff" d="M11.284 15.799h1.494l-.747-1.902-.747 1.902zM19.229 22.181v.883h2.513v.951h-2.513v1.019h2.784l1.29-1.426-1.222-1.427H19.23zM38.853 13.897l-.815 1.902H39.6l-.747-1.902zM26.495 25.577v-3.87l-1.766 1.9 1.766 1.97zM29.822 22.793c-.068-.408-.34-.612-.747-.612h-1.426v1.223h1.494c.407 0 .68-.204.68-.611zM34.575 23.268c.136-.068.204-.272.204-.475.068-.272-.068-.408-.204-.476-.135-.068-.34-.068-.543-.068h-1.358v1.087h1.358c.204 0 .408 0 .543-.068z"/>
    <path fill="#fff" d="M44.353 12.132v.814l-.407-.814h-3.191v.814l-.408-.814h-4.346c-.747 0-1.358.136-1.901.407v-.407h-3.056V12.54c-.339-.272-.746-.408-1.29-.408H18.822l-.747 1.697-.747-1.697h-3.463v.814l-.34-.814h-2.988l-1.358 3.19-1.562 3.464-.028.068h3.535l.024-.068.408-1.018h.883l.407 1.086h3.938v-.815l.34.815h1.97l.338-.815v.815h9.439V17.09h.137c.135 0 .135 0 .135.203v1.494h4.89v-.407c.407.204 1.017.407 1.832.407h2.038l.407-1.086h.95l.408 1.086h3.938V17.767l.612 1.02h3.191v-6.655h-3.056zm-23.019 5.704h-1.087V14.1l-.067.156v-.002l-1.58 3.58h-1.001l-1.63-3.734v3.735h-2.308l-.475-1.019h-2.31l-.475 1.019H9.208l2.008-4.754h1.698l1.901 4.55v-4.55h1.799l.032.068h.002l.857 1.865.616 1.397.021-.07 1.358-3.26h1.834v4.754zM26.02 14.1H23.37v.883h2.58v.95h-2.58v.951h2.649v1.018h-3.803v-4.82h3.803V14.1zm4.843 1.75l.006.005c.026.027.048.054.066.08.13.17.236.424.24.796l.002.02v.016c.002.038.003.076.003.117v.95h-1.018v-.543c0-.271 0-.679-.204-.95-.064-.064-.13-.107-.2-.137-.102-.066-.295-.067-.615-.067H27.92v1.698h-1.154v-4.754h2.58c.612 0 1.02 0 1.359.204.333.2.534.531.541 1.056-.015.723-.48 1.12-.813 1.253 0 0 .227.045.43.257zm2.287 1.985h-1.155v-4.754h1.155v4.754zm13.24 0h-1.493l-2.173-3.6v2.988l-.007-.007v.622H41.57v-.003h-1.155l-.407-1.019H37.63l-.408 1.087h-1.29c-.543 0-1.222-.136-1.63-.544-.407-.407-.61-.95-.61-1.833 0-.679.135-1.358.61-1.901.34-.408.951-.544 1.698-.544h1.087v1.019H36c-.407 0-.61.067-.883.272-.203.203-.339.61-.339 1.086 0 .543.068.883.34 1.154.203.204.475.272.814.272h.475l1.562-3.734h1.698l1.901 4.55V13.15h1.698l1.969 3.327V13.15h1.155v4.685z"/>
    <path fill="#fff" d="M29.895 15.062c.02-.021.037-.045.053-.073.061-.097.132-.272.094-.512-.002-.022-.006-.042-.01-.062l-.003-.015c-.035-.117-.12-.188-.207-.231-.136-.068-.34-.068-.543-.068H27.92v1.086h1.359c.203 0 .407 0 .543-.068.02-.01.039-.024.056-.04v.001l.017-.018zM50.397 24.626c0-.475-.136-.95-.34-1.29v-3.055h-.002v-.204h-3.27c-.424 0-.938.407-.938.407v-.408h-3.123c-.476 0-1.086.136-1.358.408v-.408h-5.568v.408c-.407-.34-1.155-.408-1.494-.408h-3.667v.408c-.34-.34-1.155-.408-1.562-.408H25l-.95 1.019-.884-1.019h-6.111v6.859h5.976l.982-.982.85.982H28.669v-1.562h.34c.474 0 1.086 0 1.56-.204v1.834h3.057v-1.766h.135c.204 0 .204 0 .204.204V27.003H43.2c.611 0 1.222-.136 1.562-.408V27.003h2.92c.61 0 1.222-.068 1.63-.34.625-.375 1.019-1.039 1.077-1.83l.009-.071-.004-.004c.002-.044.004-.087.004-.132zm-21.39-.407H27.65V25.984h-2.232l-1.299-1.494-.004.005-.064-.073-1.494 1.562H18.21v-4.753h4.414l1.206 1.32.254.277.034-.035 1.426-1.562h3.599c.698 0 1.48.172 1.777.883.036.14.056.297.056.475 0 1.358-.95 1.63-1.969 1.63zm6.79-.068c.136.203.204.475.204.883v.95h-1.154v-.61c0-.273 0-.748-.204-.952-.135-.203-.407-.203-.814-.203h-1.223v1.765h-1.154v-4.82h2.58c.543 0 1.019 0 1.359.203.339.203.61.543.61 1.086 0 .747-.475 1.155-.814 1.29.34.136.543.272.61.408zm4.686-1.97h-2.648v.883h2.58v.95h-2.58v.952h2.648v1.018h-3.802v-4.821h3.802v1.018zm2.852 3.803h-2.173v-1.018h2.173c.203 0 .34 0 .476-.136.068-.068.135-.204.135-.34 0-.136-.067-.271-.135-.339-.069-.068-.205-.136-.408-.136-1.087-.068-2.377 0-2.377-1.494 0-.679.408-1.426 1.63-1.426h2.24v1.154h-2.104c-.204 0-.34 0-.476.068-.135.068-.135.204-.135.34 0 .204.135.272.271.34.136.067.272.067.407.067h.612c.61 0 1.018.136 1.29.408.204.204.34.543.34 1.018 0 1.019-.612 1.494-1.766 1.494zm5.84-.475c-.271.272-.747.475-1.426.475h-2.173v-1.018h2.172c.204 0 .34 0 .476-.136.068-.068.136-.204.136-.34 0-.136-.068-.271-.136-.339s-.203-.136-.407-.136c-1.086-.068-2.377 0-2.377-1.494 0-.645.37-1.228 1.28-1.401.109-.015.224-.025.35-.025h2.24v1.154h-2.104c-.204 0-.34 0-.475.068-.069.068-.137.204-.137.34 0 .204.068.272.272.34.136.067.272.067.408.067h.611c.296 0 .52.037.726.109.188.068.81.347.95 1.074.012.076.021.155.021.243 0 .408-.136.747-.407 1.019z"/>
    <defs>
        <filter id="prefix__filter0_d" width="58" height="42.482" x="0" y="0" color-interpolation-filters="sRGB" filterUnits="userSpaceOnUse">
            <feFlood flood-opacity="0" result="BackgroundImageFix"/>
            <feColorMatrix in="SourceAlpha" values="0 0 0 0 0 0 0 0 0 0 0 0 0 0 0 0 0 0 127 0"/>
            <feOffset dy="2"/>
            <feGaussianBlur stdDeviation="2"/>
            <feColorMatrix values="0 0 0 0 0 0 0 0 0 0 0 0 0 0 0 0 0 0 0.15 0"/>
            <feBlend in2="BackgroundImageFix" result="effect1_dropShadow"/>
            <feBlend in="SourceGraphic" in2="effect1_dropShadow" result="shape"/>
        </filter>
    </defs>
</svg>
