<svg xmlns="http://www.w3.org/2000/svg" width="21" height="23" fill="none" viewBox="0 0 21 23">
    <path fill="#50AC51" stroke="#fff" stroke-width=".5" d="M9.699 21.87c0 .485-.394.878-.88.878H3.768c-1.938 0-3.515-1.577-3.515-3.515V3.767C.252 1.83 1.83.252 3.767.252h10.804c1.938 0 3.515 1.577 3.515 3.515v9.315c0 .485-.394.878-.879.878s-.879-.393-.879-.878V3.767c0-.969-.788-1.757-1.757-1.757H3.767c-.969 0-1.757.788-1.757 1.757v15.466c0 .969.788 1.757 1.757 1.757H8.82c.485 0 .879.394.879.88zm10.353-7.306c-.395-.282-.944-.191-1.226.203l-4.331 6.05c-.119.137-.267.167-.346.172-.082.005-.24-.005-.377-.134l-2.804-2.693c-.35-.336-.906-.325-1.242.025-.337.35-.325.907.025 1.243l2.807 2.695c.42.4.981.623 1.559.623.05 0 .099-.002.149-.005.629-.042 1.216-.348 1.61-.84l.03-.038 4.349-6.075c.283-.394.192-.943-.203-1.226zm-6.36-9.04H4.641c-.485 0-.879.394-.879.88 0 .485.394.878.879.878h9.051c.485 0 .879-.393.879-.879 0-.485-.394-.878-.879-.878zm.879 4.394c0-.485-.394-.878-.879-.878H4.641c-.485 0-.879.393-.879.878 0 .486.394.879.879.879h9.051c.485 0 .879-.393.879-.879zm-9.93 2.637c-.485 0-.879.393-.879.878 0 .486.394.879.879.879h5.497c.485 0 .879-.393.879-.879 0-.485-.394-.878-.88-.878H4.642z"/>
</svg>
