<svg xmlns="http://www.w3.org/2000/svg" width="58" height="43" fill="none" viewBox="0 0 58 43">
    <g filter="url(#prefix__filter0_d)">
        <path fill="#34495E" d="M54 33.526c0 1.633-1.323 2.956-2.956 2.956H6.956C5.323 36.482 4 35.16 4 33.526V4.956C4 3.323 5.323 2 6.956 2h44.088C52.677 2 54 3.323 54 4.956v28.57z"/>
    </g>
    <path fill="#202121" d="M6.101 33.526V4.956C6.101 3.323 7.425 2 9.057 2H6.955C5.323 2 4 3.323 4 4.956v28.57c0 1.633 1.323 2.956 2.956 2.956h2.101c-1.632 0-2.956-1.323-2.956-2.956z" opacity=".15"/>
    <path fill="#F26E21" d="M34.214 19.222c.004-.941-.35-1.884-1.06-2.594-.71-.712-1.656-1.064-2.598-1.058h-.014c-2.048 0-3.672 1.623-3.672 3.671 0 2.028 1.644 3.672 3.672 3.672 2.048 0 3.672-1.624 3.672-3.672v-.02z"/>
    <path fill="#E7E8E3" d="M26.188 20.795c-.55.55-1.056.764-1.601.775-1.33-.012-2.307-.996-2.307-2.4 0-.706.267-1.285.691-1.78.398-.377.91-.62 1.498-.62.636 0 1.13.211 1.695.776v-1.624c-.565-.282-1.06-.423-1.695-.423-.898.064-1.744.426-2.393.996-.187.168-.367.354-.518.567-.475.614-.761 1.367-.761 2.18 0 2.047 1.624 3.6 3.672 3.6h.07c.565 0 1.06-.14 1.696-.423l-.047-1.624c-.024.023.023.046 0 .068v-.068zM38.85 16.51l-1.6 3.932-1.835-4.661h-1.483l2.895 7.132h.777l3.036-7.132h-1.482l-.308.729zM41.206 18.888v3.813h3.883v-1.13h-2.471V19.665h2.401v-1.2h-2.401V16.98h2.471v-1.2h-3.883v3.107zM9.287 15.78H7.309v6.921h1.978c1.059 0 1.835-.282 2.47-.777.778-.635 1.272-1.623 1.272-2.683 0-2.048-1.483-3.46-3.742-3.46zm1.624 5.227c-.424.353-.989.564-1.836.564H8.65v-4.59h.353c.847 0 1.412.141 1.836.565.494.424.777 1.06.777 1.695.07.636-.212 1.342-.706 1.766zM15.007 15.78h-1.342v6.92h1.342v-6.92zM18.396 18.464c-.847-.282-1.06-.494-1.06-.847 0-.424.425-.777.99-.777.423 0 .776.141 1.13.565l.706-.918c-.565-.494-1.271-.776-2.048-.776-1.2 0-2.19.847-2.19 1.976 0 .99.425 1.413 1.695 1.907.565.212.777.283.919.424.282.14.423.424.423.706 0 .565-.423.989-1.06.989-.635 0-1.2-.353-1.482-.918l-.848.847c.636.918 1.413 1.342 2.402 1.342 1.412 0 2.4-.918 2.4-2.26 0-1.2-.423-1.695-1.977-2.26zM48.903 19.806c1.059-.212 1.624-.918 1.624-1.977 0-1.271-.918-2.048-2.472-2.048h-2.048v6.92h1.342v-2.754h.212l1.906 2.755h1.625l-2.19-2.896zm-1.13-.848h-.424V16.84h.424c.847 0 1.342.353 1.342 1.06 0 .706-.495 1.058-1.342 1.058z"/>
    <defs>
        <filter id="prefix__filter0_d" width="58" height="42.482" x="0" y="0" color-interpolation-filters="sRGB" filterUnits="userSpaceOnUse">
            <feFlood flood-opacity="0" result="BackgroundImageFix"/>
            <feColorMatrix in="SourceAlpha" values="0 0 0 0 0 0 0 0 0 0 0 0 0 0 0 0 0 0 127 0"/>
            <feOffset dy="2"/>
            <feGaussianBlur stdDeviation="2"/>
            <feColorMatrix values="0 0 0 0 0 0 0 0 0 0 0 0 0 0 0 0 0 0 0.15 0"/>
            <feBlend in2="BackgroundImageFix" result="effect1_dropShadow"/>
            <feBlend in="SourceGraphic" in2="effect1_dropShadow" result="shape"/>
        </filter>
    </defs>
</svg>
