<svg xmlns="http://www.w3.org/2000/svg" width="26" height="23" fill="none" viewBox="0 0 26 23">
    <path fill="#50AC51" fill-rule="evenodd" d="M16.88.267l8.39 3.483c.32.133.528.445.528.791v4.234c0 5.83-3.524 11.075-8.922 13.279-.207.084-.44.084-.647 0-3.064-1.251-5.525-3.482-7.08-6.244-.296.098-.61.148-.928.146-.094 0-.18-.006-.266-.013-.368-.03-1.354-.268-1.994-.986-.274-.25-.635-.383-1.006-.373H2.941v-1.37h2.014c.246-.001.49.027.729.085.655.209.808.332 1.18.633.089.071.189.152.311.247.281.268.657.413 1.046.405.102 0 .203-.01.301-.028-.291-.662-.534-1.348-.723-2.052-.258-.036-.51-.108-.749-.214-.587-.305-.887-.512-1.37-.95-.22-.126-.47-.188-.725-.18H2.941V9.79h2.014c.245-.001.488.027.726.084.488.143.782.294 1.37.779.123.133.268.243.426.325-.103-.66-.16-1.332-.169-2.012-.087-.03-.173-.063-.258-.1-.567-.307-.872-.504-1.37-.95-.22-.126-.47-.188-.725-.18H2.941v-1.37h2.014c.245-.002.488.026.726.083.553.187.85.376 1.37.78.077.084.164.158.256.222v-2.91c0-.346.208-.658.528-.79l8.39-3.484c.21-.087.446-.087.656 0zm-7.859 8.73c.475-.132.914-.384 1.27-.737.602-.658 1.623-.703 2.281-.101l.017.015.023.022.017.018.045.046c1.15 1.127 2.992 1.127 4.143 0 .306-.334.738-.525 1.19-.524v-1.37c-.774-.004-1.52.3-2.07.845-.602.658-1.623.703-2.28.101-.036-.032-.07-.066-.102-.101-1.151-1.127-2.992-1.127-4.143 0-.115.126-.248.23-.393.313V5.113l7.534-3.128 7.533 3.128v3.662c0 4.957-2.91 9.52-7.533 11.556-2.562-1.129-4.65-3.068-5.972-5.47.605-.407 1.43-.365 1.992.149.035.032.069.066.101.101 1.152 1.127 2.992 1.127 4.144 0 .305-.335.737-.526 1.19-.527v-1.37c-.775-.004-1.52.3-2.071.845-.602.658-1.623.704-2.28.102-.036-.032-.07-.066-.102-.101-.975-.955-2.444-1.1-3.571-.439-.186-.448-.347-.909-.482-1.38.29-.14.557-.326.79-.557.601-.657 1.623-.703 2.28-.101.036.032.07.066.102.101 1.15 1.127 2.992 1.127 4.143 0 .306-.334.738-.524 1.19-.524V9.79c-.774-.004-1.52.3-2.07.845-.602.658-1.623.703-2.28.102-.036-.033-.07-.066-.102-.102-1.151-1.127-2.992-1.127-4.143 0-.069.075-.144.143-.224.203-.1-.601-.156-1.216-.167-1.84z" clip-rule="evenodd"/>
    <path fill="#50AC51" d="M1.572 6.366H.202v1.37h1.37v-1.37zM.202 9.79h1.37v1.37H.202V9.79zM.202 13.214h1.37v1.37H.202v-1.37z"/>
    <path fill-rule="evenodd" stroke="#fff" stroke-width=".4" d="M16.88.267l8.39 3.483c.32.133.528.445.528.791v4.234c0 5.83-3.524 11.075-8.922 13.279-.207.084-.44.084-.647 0-3.064-1.251-5.525-3.482-7.08-6.244-.296.098-.61.148-.928.146-.094 0-.18-.006-.266-.013-.368-.03-1.354-.268-1.994-.986-.274-.25-.635-.383-1.006-.373H2.941v-1.37h2.014c.246-.001.49.027.729.085.655.209.808.332 1.18.633.089.071.189.152.311.247.281.268.657.413 1.046.405.102 0 .203-.01.301-.028-.291-.662-.534-1.348-.723-2.052-.258-.036-.51-.108-.749-.214-.587-.305-.887-.512-1.37-.95-.22-.126-.47-.188-.725-.18H2.941V9.79h2.014c.245-.001.488.027.726.084.488.143.782.294 1.37.779.123.133.268.243.426.325-.103-.66-.16-1.332-.169-2.012-.087-.03-.173-.063-.258-.1-.567-.307-.872-.504-1.37-.95-.22-.126-.47-.188-.725-.18H2.941v-1.37h2.014c.245-.002.488.026.726.083.553.187.85.376 1.37.78.077.084.164.158.256.222v-2.91c0-.346.208-.658.528-.79l8.39-3.484c.21-.087.446-.087.656 0zm-7.859 8.73c.475-.132.914-.384 1.27-.737.602-.658 1.623-.703 2.281-.101l.017.015.023.022.017.018.045.046c1.15 1.127 2.992 1.127 4.143 0 .306-.334.738-.525 1.19-.524v-1.37c-.774-.004-1.52.3-2.07.845-.602.658-1.623.703-2.28.101-.036-.032-.07-.066-.102-.101-1.151-1.127-2.992-1.127-4.143 0-.115.126-.248.23-.393.313V5.113l7.534-3.128 7.533 3.128v3.662c0 4.957-2.91 9.52-7.533 11.556-2.562-1.129-4.65-3.068-5.972-5.47.605-.407 1.43-.365 1.992.149.035.032.069.066.101.101 1.152 1.127 2.992 1.127 4.144 0 .305-.335.737-.526 1.19-.527v-1.37c-.775-.004-1.52.3-2.071.845-.602.658-1.623.704-2.28.102-.036-.032-.07-.066-.102-.101-.975-.955-2.444-1.1-3.571-.439-.186-.448-.347-.909-.482-1.38.29-.14.557-.326.79-.557.601-.657 1.623-.703 2.28-.101.036.032.07.066.102.101 1.15 1.127 2.992 1.127 4.143 0 .306-.334.738-.524 1.19-.524V9.79c-.774-.004-1.52.3-2.07.845-.602.658-1.623.703-2.28.102-.036-.033-.07-.066-.102-.102-1.151-1.127-2.992-1.127-4.143 0-.069.075-.144.143-.224.203-.1-.601-.156-1.216-.167-1.84z" clip-rule="evenodd"/>
    <path stroke="#fff" stroke-width=".4" d="M1.572 6.366H.202v1.37h1.37v-1.37zM.202 9.79h1.37v1.37H.202V9.79zM.202 13.214h1.37v1.37H.202v-1.37z"/>
</svg>
