<svg width="24" height="24" viewBox="0 0 24 24" fill="none" xmlns="http://www.w3.org/2000/svg">
<path d="M12 0C18.6277 0 24 5.3723 24 12C24 18.6277 18.6277 24 12 24C5.3723 24 0 18.6277 0 12C0 5.3723 5.3723 0 12 0ZM12 1.875C6.40795 1.875 1.875 6.40795 1.875 12C1.875 17.592 6.40795 22.125 12 22.125C17.592 22.125 22.125 17.592 22.125 12C22.125 6.40795 17.592 1.875 12 1.875ZM13.3403 6L14.9684 6.00806V8.06395H13.5479C13.3102 8.06395 12.801 8.17232 12.801 8.63962V10.1631H15L14.6605 12.2812H12.801V18H10.6119V12.2812H9V10.1631H10.6119V8.51587C10.6119 7.53295 11.1189 6 13.3403 6Z" fill="white"/>
</svg>
