<svg xmlns="http://www.w3.org/2000/svg" width="46" height="46" fill="none" viewBox="0 0 46 46">
    <path fill="#F0F0F0" d="M23 46c12.703 0 23-10.297 23-23S35.703 0 23 0 0 10.297 0 23s10.297 23 23 23z"/>
    <path fill="#D80027" d="M21.999 23h24c0-2.076-.277-4.087-.792-6H21.999v6zM21.999 11h20.624c-1.408-2.298-3.208-4.328-5.307-6H22v6zM23 46c5.413 0 10.388-1.871 14.317-5H8.683c3.928 3.129 8.904 5 14.317 5zM3.375 35h39.249c1.13-1.844 2.007-3.86 2.583-6H.792c.576 2.14 1.453 4.156 2.583 6z"/>
    <path fill="#0052B4" d="M10.654 3.592h2.096L10.8 5.008l.745 2.292-1.95-1.416L7.647 7.3l.643-1.98c-1.716 1.43-3.22 3.105-4.46 4.972H4.5l-1.241.901c-.193.323-.379.65-.556.983L3.295 14l-1.106-.803c-.274.582-.526 1.177-.752 1.785l.653 2.01H4.5l-1.95 1.416.745 2.292-1.95-1.416-1.167.848C.06 21.072 0 22.03 0 23h23V0c-4.544 0-8.78 1.318-12.346 3.592zm.891 17.108l-1.95-1.416L7.647 20.7l.745-2.292-1.95-1.416h2.41l.745-2.292.744 2.292h2.41l-1.95 1.416.745 2.292zm-.745-8.992L11.545 14l-1.95-1.416L7.647 14l.745-2.292-1.95-1.416h2.41L9.596 8l.744 2.292h2.41l-1.95 1.416zm8.995 8.992l-1.95-1.416-1.949 1.416.745-2.292-1.95-1.416h2.41l.745-2.292.744 2.292H21l-1.95 1.416.745 2.292zm-.745-8.992L19.795 14l-1.95-1.416L15.897 14l.745-2.292-1.95-1.416h2.41L17.846 8l.744 2.292H21l-1.95 1.416zm0-6.7l.745 2.292-1.95-1.416L15.897 7.3l.745-2.292-1.95-1.416h2.41l.745-2.292.744 2.292H21l-1.95 1.416z"/>
</svg>
