<svg width="24" height="24" viewBox="0 0 24 24" fill="none" xmlns="http://www.w3.org/2000/svg">
<path d="M12 0C18.6277 0 24 5.3723 24 12C24 18.6277 18.6277 24 12 24C5.3723 24 0 18.6277 0 12C0 5.3723 5.3723 0 12 0ZM12 1.875C6.40795 1.875 1.875 6.40795 1.875 12C1.875 17.592 6.40795 22.125 12 22.125C17.592 22.125 22.125 17.592 22.125 12C22.125 6.40795 17.592 1.875 12 1.875ZM12.001 7.00012C12.7851 6.99844 13.5091 7.0182 14.2135 7.061C14.8593 7.1003 15.4487 7.32345 15.9183 7.7063C16.3714 8.07572 16.6807 8.57522 16.8378 9.19077C16.9745 9.72666 16.9818 10.2528 16.9887 10.7615C16.9937 11.1266 16.999 11.5592 17 11.9991V12.0009C16.999 12.4408 16.9937 12.8734 16.9887 13.2385C16.9818 13.7472 16.9746 14.2733 16.8378 14.8092C16.6807 15.4248 16.3714 15.9243 15.9183 16.2937C15.4487 16.6765 14.8593 16.8997 14.2135 16.939C13.539 16.98 12.846 17 12.0986 17C12.0655 17 12.0324 17 11.999 16.9998C11.2151 17.0018 10.4909 16.9818 9.7865 16.939C9.14072 16.8997 8.55126 16.6765 8.08173 16.2937C7.62867 15.9243 7.31933 15.4248 7.16223 14.8092C7.02551 14.2733 7.01823 13.7473 7.01129 13.2385C7.00626 12.8734 7.00107 12.4408 7 12.0009C7.00107 11.5592 7.00626 11.1266 7.01129 10.7615C7.01823 10.2528 7.02551 9.72673 7.16223 9.19077C7.31933 8.57522 7.62867 8.07572 8.08173 7.7063C8.55126 7.32345 9.14071 7.1003 9.78656 7.061C10.4909 7.0182 11.2154 6.99821 12.001 7.00012ZM12.0009 7.7813C11.2299 7.77946 10.5218 7.79892 9.83398 7.84081C9.34569 7.87048 8.92228 8.02894 8.57544 8.31169C8.25484 8.57315 8.03408 8.93388 7.91925 9.38387C7.80542 9.83003 7.79881 10.3089 7.79248 10.7722C7.78752 11.1351 7.78232 11.5649 7.78125 12.0009C7.78232 12.435 7.78752 12.8649 7.79248 13.2278C7.79881 13.691 7.80542 14.17 7.91925 14.616C8.03408 15.066 8.25484 15.4267 8.57544 15.6882C8.92228 15.9709 9.34569 16.1294 9.83398 16.1591C10.5218 16.201 11.23 16.2205 11.999 16.2186C12.7702 16.2204 13.4782 16.201 14.166 16.1592C14.6543 16.1295 15.0777 15.971 15.4246 15.6882C15.7452 15.4267 15.9659 15.066 16.0807 14.616C16.1946 14.17 16.2012 13.691 16.2075 13.2278C16.2125 12.8652 16.2177 12.4356 16.2188 12C16.2177 11.5643 16.2125 11.1348 16.2075 10.7722C16.2012 10.309 16.1946 9.83003 16.0807 9.38387C15.9659 8.93388 15.7452 8.57315 15.4246 8.31169C15.0777 8.02894 14.6543 7.87048 14.166 7.84081C13.4782 7.79892 12.7702 7.77962 12.0009 7.7813ZM11.9804 9.55858C13.3267 9.55858 14.4219 10.6538 14.4219 12C14.4219 13.3462 13.3267 14.4414 11.9804 14.4414C10.6342 14.4414 9.53894 13.3462 9.53894 12C9.53894 10.6538 10.6342 9.55858 11.9804 9.55858ZM11.9804 10.3398C11.065 10.3398 10.3202 11.0846 10.3202 12C10.3202 12.9154 11.065 13.6601 11.9804 13.6601C12.8959 13.6601 13.6406 12.9154 13.6406 12C13.6406 11.0846 12.8959 10.3398 11.9804 10.3398ZM14.6954 8.77733C15.019 8.77733 15.2813 9.03963 15.2813 9.36327C15.2813 9.68691 15.019 9.9492 14.6954 9.9492C14.3718 9.9492 14.1094 9.68691 14.1094 9.36327C14.1094 9.03963 14.3718 8.77733 14.6954 8.77733Z" fill="white"/>
</svg>
