<svg xmlns="http://www.w3.org/2000/svg" width="18" height="18" fill="none" viewBox="0 0 18 18">
    <circle cx="9" cy="9" r="8.5" fill="#628EF7" stroke="#fff"/>
    <path fill="#fff" d="M4.355 13.236c-.197 0-.355-.161-.355-.356V8.922c0-.197.16-.355.355-.355H5.84c.197 0 .356.16.356.355v3.956c0 .197-.161.355-.356.355H4.355v.002zm9.34-3.26c-.102.107-.122.27-.044.397 0 .002.1.173.112.406.017.32-.136.602-.457.843-.115.087-.161.238-.112.374 0 .003.104.324-.066.628-.163.293-.526.502-1.076.619-.44.095-1.04.112-1.774.053h-.035c-1.565.034-3.147-.17-3.164-.172h-.002l-.246-.03c.014-.068.022-.14.022-.214V8.922c0-.104-.017-.207-.046-.302.043-.163.165-.525.452-.835 1.093-.866 2.162-3.79 2.208-3.916.02-.051.024-.107.015-.163-.042-.273-.027-.606.031-.706.13.002.477.039.687.329.248.343.238.956-.03 1.77-.408 1.238-.443 1.89-.119 2.178.16.143.375.15.53.095.15-.034.29-.064.424-.086l.032-.007c.747-.163 2.086-.263 2.551.16.394.361.114.838.083.89-.09.136-.063.313.058.423.003.002.258.243.27.567.01.217-.092.438-.304.657z"/>
</svg>
