<svg width="24" height="24" viewBox="0 0 24 24" fill="none" xmlns="http://www.w3.org/2000/svg">
<path d="M12 0C18.6277 0 24 5.3723 24 12C24 18.6277 18.6277 24 12 24C5.3723 24 0 18.6277 0 12C0 5.3723 5.3723 0 12 0ZM12 1.875C6.40795 1.875 1.875 6.40795 1.875 12C1.875 17.592 6.40795 22.125 12 22.125C17.592 22.125 22.125 17.592 22.125 12C22.125 6.40795 17.592 1.875 12 1.875ZM9 9V16H7V9H9ZM11.9111 8V9.33182C12.0182 9.27526 12.8231 8.02863 14.4593 8C16.5508 8.02859 16.9328 9.66931 17 10.4679V16L15.0964 15.9909V11.3295C15.069 11.1728 14.6323 10.053 13.8223 9.99773C12.3143 9.78963 11.9111 11.1586 11.9111 11.3295V15.9909H10V8H11.9111ZM8 6C8.55208 6 9 6.44725 9 7C9 7.55275 8.55208 8 8 8C7.44792 8 7 7.55275 7 7C7 6.44725 7.44792 6 8 6Z" fill="white"/>
</svg>
