<svg xmlns="http://www.w3.org/2000/svg" width="40" height="40" fill="none" viewBox="0 0 40 40">
    <path fill="#DF1E2C" fill-rule="evenodd" d="M39.995 2.028c.078 1.195-.827 2.228-2.023 2.306L11.81 6.043c-1.95.155-6.078 1.665-7.147 6.303-.488 2.118-.448 5.265.268 8.63l15.687-1.022c1.196-.078 2.228.828 2.306 2.023.078 1.196-.828 2.228-2.024 2.306l-14.712.958c1.949 5.081 5.314 9.178 9.897 10.144 1.803.38 3.926-.301 6.313-2.155 2.358-1.831 4.66-4.577 6.65-7.602 1.981-3.01 3.58-6.184 4.57-8.773.4-1.046.686-1.96.862-2.704l-18.725 1.014c-1.196.065-2.219-.853-2.283-2.049-.065-1.196.852-2.218 2.049-2.283l21.054-1.14c.864-.047 1.672.424 2.058 1.197.317.634.387 1.305.392 1.824.006.551-.063 1.136-.17 1.719-.217 1.166-.633 2.528-1.185 3.972-1.109 2.897-2.854 6.35-4.998 9.608-2.135 3.245-4.742 6.413-7.612 8.643-2.842 2.207-6.266 3.734-9.87 2.974-7.759-1.636-12.16-9.062-14.024-15.793-1.233-4.454-1.508-9.09-.73-12.465C2.096 4.164 8.5 1.947 11.488 1.716l.025-.001L37.689.005c1.196-.078 2.228.827 2.306 2.023z" clip-rule="evenodd"/>
</svg>
