<svg xmlns="http://www.w3.org/2000/svg" width="58" height="42" fill="none" viewBox="0 0 58 42">
    <g filter="url(#prefix__filter0_d)">
        <rect width="50" height="33.333" x="4" y="2" fill="#fff" rx="4"/>
    </g>
    <path fill="url(#prefix__paint0_linear)" d="M35.69 8.944c-2.575.001-4.922.977-6.691 2.58-1.77-1.6-4.116-2.577-6.689-2.577h-.064c-5.477.035-9.913 4.491-9.913 9.977 0 5.507 4.47 9.976 9.977 9.976 2.572 0 4.918-.976 6.687-2.578-.37-.334-.704-.703-1.02-1.09h2.06c-.31.38-.649.737-1.013 1.069h-.001c-.009.009-.018.014-.026.021 1.771 1.604 4.12 2.582 6.696 2.581 5.51-.002 9.975-4.47 9.974-9.98v-.004c0-5.51-4.468-9.976-9.977-9.975zm-7.599 3.61h1.897c.28.34.539.696.774 1.069h-3.383c.218-.357.458-.723.712-1.068zm-1.301 2.117h4.547c.162.345.305.702.43 1.068h-5.516c.055-.103.248-.519.539-1.069zm-10.384 6.794l.605-3.815-1.365 3.815h-.732l-.095-3.815-.646 3.815h-1.025l.85-5.06h1.55l.054 3.105 1.047-3.104h1.681l-.837 5.059h-1.087zm3.624-.009l.035-.404c-.017.003-.34.489-1.09.489-.392 0-1.025-.215-1.025-1.145 0-1.183.965-1.576 1.884-1.576.144 0 .456.026.456.026s.035-.072.035-.267c0-.322-.289-.366-.685-.366-.697 0-1.157.187-1.157.187l.154-.916s.559-.234 1.286-.234c.377 0 1.46.04 1.46 1.281l-.418 2.925h-.935zm3.953-1.288c0 1.412-1.368 1.351-1.607 1.351-.891 0-1.166-.123-1.192-.13l.142-.93c.001-.007.447.163.944.163.286 0 .658-.029.658-.37 0-.513-1.33-.39-1.33-1.607 0-1.073.797-1.386 1.583-1.386.607 0 .98.083.98.083l-.134.937s-.576-.047-.726-.047c-.377 0-.583.082-.583.347 0 .531 1.265.27 1.265 1.589zm1.642.37c.094 0 .201-.032.274-.032l-.133.902c-.106.03-.409.137-.796.14-.495.004-.847-.272-.847-.9 0-.421.604-3.893.627-3.915h1.062l-.108.62h.53l-.135 1h-.563l-.298 1.843c-.023.147.018.342.387.342zm2.336-3.302c1.166 0 1.515.854 1.515 1.554 0 .28-.14.969-.14.969h-2.159s-.2.85.941.85c.535 0 1.128-.262 1.128-.262l-.187 1.023s-.343.175-1.122.175c-.844 0-1.835-.357-1.835-1.857 0-1.3.791-2.451 1.86-2.451zm2.813 6.968h-3.539c-.215-.344-.416-.697-.59-1.068h4.711c-.174.369-.368.725-.582 1.068zm-.237-2.732h-1.09l.663-4.117h.989l-.095.597s.352-.65.828-.65c.138 0 .205.014.205.014-.141.288-.266.552-.395 1.232-.738-.261-.795 1.166-1.105 2.924zm4.154-.064s-.572.146-.93.146c-1.267 0-1.91-.875-1.91-2.2 0-1.998 1.192-3.062 2.418-3.062.554 0 1.196.26 1.196.26l-.173 1.126s-.435-.304-.975-.304c-.723 0-1.371.69-1.371 1.943 0 .618.302 1.193 1.056 1.193.36 0 .879-.26.879-.26l-.19 1.158zm2.557.05l.036-.406c-.017.002-.341.488-1.09.488-.392 0-1.026-.214-1.026-1.145 0-1.183.965-1.575 1.884-1.575.144 0 .457.026.457.026s.036-.072.036-.267c0-.322-.29-.366-.686-.366-.697 0-1.157.187-1.157.187l.154-.916s.559-.234 1.287-.234c.376 0 1.46.04 1.459 1.281l-.417 2.925c-.001.003-.937.003-.937.003zm2.207.014h-1.09l.663-4.117h.99l-.095.597s.353-.65.828-.65c.139 0 .205.014.205.014-.14.288-.267.552-.395 1.232-.739-.261-.795 1.166-1.106 2.924zm3.255-.01l.046-.38s-.352.445-.99.445c-.883 0-1.315-.853-1.315-1.725 0-1.347.81-2.522 1.784-2.522.626.001 1.026.554 1.026.554l.23-1.421 1.065-.003-.813 5.051H42.71z"/>
    <path fill="url(#prefix__paint1_linear)" d="M19.92 19.61c-.778 0-.936.35-.936.64 0 .15.086.401.416.401.64 0 .772-.838.752-1.017-.03-.006-.05-.024-.232-.024z"/>
    <path fill="url(#prefix__paint2_linear)" d="M27.965 18.187c-.579 0-.69.659-.69.728h1.179c0-.053.11-.728-.489-.728z"/>
    <path fill="url(#prefix__paint3_linear)" d="M42.419 18.302c-.467 0-.837.542-.836 1.366 0 .503.178.825.561.825.576 0 .853-.751.853-1.31 0-.618-.196-.881-.578-.881z"/>
    <path fill="url(#prefix__paint4_linear)" d="M37.139 19.61c-.779 0-.936.35-.936.64 0 .15.085.401.416.401.64 0 .771-.838.751-1.017-.03-.006-.05-.024-.231-.024z"/>
    <defs>
        <linearGradient id="prefix__paint0_linear" x1="12.333" x2="45.667" y1="22.139" y2="22.139" gradientUnits="userSpaceOnUse">
            <stop stop-color="#B72619"/>
            <stop offset="1" stop-color="#EB9937"/>
        </linearGradient>
        <linearGradient id="prefix__paint1_linear" x1="19.569" x2="19.569" y1="19.61" y2="20.651" gradientUnits="userSpaceOnUse">
            <stop stop-color="#B72619"/>
            <stop offset="1" stop-color="#EB9937"/>
        </linearGradient>
        <linearGradient id="prefix__paint2_linear" x1="27.869" x2="27.869" y1="18.187" y2="18.915" gradientUnits="userSpaceOnUse">
            <stop stop-color="#B72619"/>
            <stop offset="1" stop-color="#EB9937"/>
        </linearGradient>
        <linearGradient id="prefix__paint3_linear" x1="42.29" x2="42.29" y1="18.302" y2="20.493" gradientUnits="userSpaceOnUse">
            <stop stop-color="#B72619"/>
            <stop offset="1" stop-color="#EB9937"/>
        </linearGradient>
        <linearGradient id="prefix__paint4_linear" x1="36.788" x2="36.788" y1="19.61" y2="20.651" gradientUnits="userSpaceOnUse">
            <stop stop-color="#B72619"/>
            <stop offset="1" stop-color="#EB9937"/>
        </linearGradient>
        <filter id="prefix__filter0_d" width="58" height="41.333" x="0" y="0" color-interpolation-filters="sRGB" filterUnits="userSpaceOnUse">
            <feFlood flood-opacity="0" result="BackgroundImageFix"/>
            <feColorMatrix in="SourceAlpha" values="0 0 0 0 0 0 0 0 0 0 0 0 0 0 0 0 0 0 127 0"/>
            <feOffset dy="2"/>
            <feGaussianBlur stdDeviation="2"/>
            <feColorMatrix values="0 0 0 0 0 0 0 0 0 0 0 0 0 0 0 0 0 0 0.15 0"/>
            <feBlend in2="BackgroundImageFix" result="effect1_dropShadow"/>
            <feBlend in="SourceGraphic" in2="effect1_dropShadow" result="shape"/>
        </filter>
    </defs>
</svg>
