<svg xmlns="http://www.w3.org/2000/svg" width="58" height="42" fill="none" viewBox="0 0 58 42">
    <g filter="url(#prefix__filter0_d)">
        <rect width="50" height="33.333" x="4" y="2" fill="url(#prefix__paint0_linear)" rx="4"/>
    </g>
    <path fill="#fff" d="M17.235 15.669c-.14-.282-.362-.514-.638-.688-.287-.176-.626-.3-1.014-.372-.394-.072-.85-.104-1.377-.109l-2.437.002c-.254.003-.502.2-.561.445l-1.64 7.141c-.06.242.1.444.353.444h1.167c.253 0 .504-.196.56-.444l.4-1.733c.054-.242.304-.443.56-.443h.334c1.427-.002 2.532-.294 3.325-.877.799-.585 1.192-1.358 1.192-2.315 0-.419-.07-.77-.224-1.051zm-2.517 2.333c-.353.258-.843.387-1.476.387h-.285c-.254 0-.41-.2-.355-.445l.351-1.516c.05-.243.306-.445.556-.443l.383-.003c.446 0 .787.078 1.015.227.225.148.338.384.336.695.007.475-.174.84-.525 1.098zM22.862 16.69c-.44-.249-1.135-.373-2.085-.373-.47 0-.939.037-1.412.11-.35.053-.383.064-.599.11-.443.097-.513.54-.513.54l-.143.587c-.08.375.135.36.226.33.193-.058.301-.118.697-.206.378-.086.777-.15 1.093-.146.467 0 .824.049 1.062.15.235.101.352.276.352.53l-.02.164-.169.104c-.662.042-1.14.103-1.721.187-.568.08-1.066.218-1.48.407-.444.196-.774.458-1.004.792-.223.336-.335.743-.335 1.221 0 .45.162.821.476 1.108.315.282.732.42 1.23.42.315-.002.559-.026.732-.068l.565-.195.479-.265.44-.29.006.008-.044.187-.003.008v.002c-.047.227.09.414.312.436l.005.006h1.083l.016-.007c.232-.027.45-.215.502-.437l.85-3.683.045-.3.02-.281c.004-.522-.221-.909-.663-1.156zm-1.881 4.14l-.182.24-.46.238c-.215.087-.42.131-.61.131-.287 0-.512-.041-.664-.126l-.226-.438c0-.237.055-.425.171-.57l.495-.336c.212-.072.47-.132.77-.174.266-.033.793-.093.862-.095l.08.142c-.015.08-.165.706-.236.989zM44.058 16.695c-.442-.248-1.137-.373-2.084-.373-.47 0-.94.036-1.411.112-.35.05-.386.062-.601.108-.443.096-.512.54-.512.54l-.143.587c-.08.375.131.357.23.329.194-.058.299-.115.691-.207.377-.085.78-.148 1.096-.146.465 0 .822.05 1.06.15.235.102.351.28.351.53l-.018.164-.166.106c-.67.04-1.149.101-1.723.186-.566.079-1.066.216-1.48.407-.444.196-.778.459-1.005.793-.226.336-.335.742-.335 1.216 0 .453.16.824.477 1.11.317.281.73.422 1.228.422.313-.003.557-.023.731-.069l.564-.192.483-.265.437-.294.007.01-.04.188-.004.004.002.003c-.053.228.086.416.31.437l.002.004h1.083l.017-.006c.23-.028.448-.215.497-.44l.853-3.678.045-.302.025-.282c0-.52-.222-.905-.667-1.152zm-1.877 4.14l-.19.243-.454.235c-.216.087-.422.132-.608.132-.297 0-.516-.042-.664-.127l-.228-.436c0-.238.056-.425.167-.572.113-.138.285-.252.5-.335.209-.072.467-.13.768-.173.265-.033.79-.095.858-.096l.083.142c-.012.08-.162.704-.232.988zM38.428 15.695c-.147-.283-.366-.512-.643-.69-.284-.177-.62-.301-1.014-.373-.387-.069-.848-.106-1.373-.107l-2.44.002c-.254.004-.498.201-.557.444l-1.64 7.144c-.06.243.103.443.351.443l1.169-.002c.248.002.502-.197.56-.441l.396-1.735c.058-.242.308-.445.56-.443h.335c1.429 0 2.536-.294 3.333-.876.788-.59 1.187-1.36 1.187-2.318-.004-.417-.077-.77-.224-1.048zM35.91 18.03c-.352.254-.843.383-1.472.383h-.291c-.25.002-.413-.202-.357-.445l.354-1.513c.051-.243.305-.446.557-.443l.378-.003c.45.003.786.077 1.015.226.229.15.337.384.34.695.002.475-.174.84-.524 1.1zM48.434 15.028c.053-.244-.1-.442-.35-.439h-1.046c-.214 0-.407.16-.501.355l-.058.09-.053.231-1.46 6.642-.048.204.001.005c-.048.218.086.383.294.414l.017.025h1.086c.212 0 .412-.161.503-.36l.056-.085 1.562-7.081-.003-.001zM30.793 16.406c-.277.004-1.4 0-1.4 0-.251 0-.574.203-.734.446 0 0-1.67 2.867-1.833 3.155l-.194-.002-.52-3.134c-.058-.246-.316-.457-.636-.457l-1.046.002c-.251 0-.406.2-.349.445 0 0 .794 4.517.953 5.58.074.587-.01.692-.01.692l-1.033 1.8c-.153.245-.07.445.18.445l1.209-.002c.252 0 .582-.198.732-.444l4.649-7.864c0 .001.447-.671.032-.662z"/>
    <defs>
        <linearGradient id="prefix__paint0_linear" x1="29" x2="29" y1="2" y2="35.333" gradientUnits="userSpaceOnUse">
            <stop stop-color="#4197D3"/>
            <stop offset="1" stop-color="#0F307E"/>
        </linearGradient>
        <filter id="prefix__filter0_d" width="58" height="41.333" x="0" y="0" color-interpolation-filters="sRGB" filterUnits="userSpaceOnUse">
            <feFlood flood-opacity="0" result="BackgroundImageFix"/>
            <feColorMatrix in="SourceAlpha" values="0 0 0 0 0 0 0 0 0 0 0 0 0 0 0 0 0 0 127 0"/>
            <feOffset dy="2"/>
            <feGaussianBlur stdDeviation="2"/>
            <feColorMatrix values="0 0 0 0 0 0 0 0 0 0 0 0 0 0 0 0 0 0 0.15 0"/>
            <feBlend in2="BackgroundImageFix" result="effect1_dropShadow"/>
            <feBlend in="SourceGraphic" in2="effect1_dropShadow" result="shape"/>
        </filter>
    </defs>
</svg>
