<svg xmlns="http://www.w3.org/2000/svg" width="15" height="27" fill="none" viewBox="0 0 15 27">
    <path fill="#50AC51" stroke="#50AC51" stroke-width=".2" d="M14.3 26.314c-.436-.805-.884-2.856-1.06-4.165h.487c.105 0 .205-.041.28-.115.074-.075.116-.175.116-.28-.002-1.32-.527-2.584-1.46-3.516-.932-.933-2.197-1.458-3.515-1.46h-.17v-.96c0-.105-.042-.206-.116-.28-.074-.074-.175-.116-.28-.116H8.3V1.176c0-.285-.114-.558-.315-.76-.201-.201-.475-.314-.76-.314-.284 0-.558.113-.759.314-.201.202-.315.475-.315.76v14.246H5.87c-.105 0-.206.042-.28.116-.074.074-.116.175-.116.28v.96h-.17c-1.319.002-2.583.527-3.516 1.46C.855 19.17.33 20.435.328 21.754c0 .105.042.205.116.28.075.074.175.116.28.116h.486c-.186 1.412-.654 3.41-1.06 4.164-.033.06-.05.128-.048.197.001.068.02.135.056.194.035.059.084.108.144.142.06.033.127.051.195.051h13.455c.069 0 .136-.018.196-.052.06-.033.11-.082.144-.141.035-.06.055-.126.056-.195.001-.068-.015-.136-.048-.196h0zM6.944 1.176c0-.075.03-.147.083-.2.053-.053.125-.083.2-.083.074 0 .146.03.2.083.052.053.082.125.082.2v14.246h-.565V1.176zm-.679 15.037h1.923v.566H6.264v-.566zm-.96 1.357h3.844c1.04.002 2.043.39 2.813 1.09.77.7 1.252 1.662 1.351 2.698H1.139c.1-1.036.582-1.998 1.352-2.698.77-.7 1.773-1.088 2.813-1.09zm6.212 8.537c-.22-.55-.381-1.12-.48-1.704-.02-.102-.08-.192-.165-.25-.085-.06-.19-.083-.293-.064-.102.018-.194.075-.254.16s-.085.19-.068.292c.094.532.231 1.056.41 1.566h-1.27c-.226-.586-.351-1.583-.46-2.568-.005-.052-.02-.102-.046-.148-.025-.045-.058-.085-.099-.118-.04-.032-.087-.057-.137-.071-.05-.015-.102-.02-.153-.014-.052.006-.102.022-.148.047-.045.025-.085.059-.118.1-.032.04-.057.086-.071.136-.015.05-.02.102-.014.154.068.837.206 1.667.412 2.482H5.628c.14-.524.233-1.059.276-1.599.01-.104-.022-.209-.09-.29-.067-.08-.163-.13-.268-.14-.104-.01-.208.023-.289.09-.08.067-.131.164-.14.268-.045.566-.149 1.126-.311 1.67H3.399c.227-.823.409-1.659.544-2.503.009-.05.007-.103-.005-.154-.012-.05-.034-.098-.064-.14-.03-.042-.069-.078-.113-.106-.044-.027-.094-.045-.145-.053-.104-.017-.21.008-.295.07-.042.03-.078.068-.105.112-.027.044-.046.094-.054.145-.142.887-.338 1.766-.586 2.63H1.103c.433-1.286.736-2.612.906-3.957h10.433c.169 1.345.472 2.671.904 3.957h-1.83z"/>
    <path fill="#50AC51" stroke="#50AC51" stroke-width=".2" d="M9.345 18.87h-4.24c-.105 0-.205.042-.28.116-.074.075-.115.175-.115.28 0 .105.041.206.116.28.074.074.174.116.28.116h4.24c.104 0 .205-.042.28-.116.073-.074.115-.175.115-.28 0-.105-.042-.205-.116-.28-.074-.074-.175-.116-.28-.116z"/>
</svg>
