<svg xmlns="http://www.w3.org/2000/svg" width="19" height="19" fill="none" viewBox="0 0 19 19">
    <path fill="#000" stroke="#000" stroke-width=".4" d="M18.176 3.732c-.345-.394-.836-.61-1.384-.61H3.56l-.134-1C3.283 1.048 2.534.206 1.721.206H.75c-.3 0-.544.243-.544.544 0 .301.243.545.544.545h.972c.175 0 .545.37.626.973L3.906 13.96c.068.516.333.998.745 1.359.306.268.667.446 1.046.52-.154.284-.242.609-.242.953 0 1.105.899 2.003 2.003 2.003 1.105 0 2.003-.898 2.003-2.003 0-.329-.08-.64-.221-.913h2.854c-.141.274-.222.584-.222.913 0 1.105.899 2.003 2.003 2.003 1.105 0 2.004-.898 2.004-2.003 0-.329-.08-.64-.222-.913h1.427c.3 0 .545-.244.545-.545 0-.3-.244-.545-.545-.545H6.097c-.532 0-1.041-.445-1.112-.973l-.113-.855H9.11s0 0 0 0 0 0 0 0h3.5s0 0 0 0 0 0 0 0h3.014c.52 0 1.034-.198 1.446-.559.412-.36.677-.843.746-1.359l.78-5.86c.073-.542-.077-1.057-.421-1.45zm-9.804 13.06c0 .504-.41.914-.914.914s-.914-.41-.914-.914.41-.913.914-.913.914.41.914.913zm6.417 0c0 .504-.41.914-.914.914s-.914-.41-.914-.914.41-.913.914-.913.914.41.914.913zM17.356 4.45c.135.154.192.363.162.59l-.328 2.457h-3.705l.219-3.286h3.088c.229 0 .43.085.564.239zM9.62 11.872l-.22-3.286h2.92l-.22 3.286h-2.48zM9.33 7.497L9.11 4.21h3.502l-.22 3.286H9.33zM8.02 4.21l.219 3.286H4.143L3.705 4.21h4.314zm-3.73 4.375H8.31l.22 3.286H4.725l-.438-3.286zm11.337 3.286h-2.433l.219-3.286h3.633l-.308 2.313c-.07.528-.58.973-1.111.973z"/>
</svg>
