<svg xmlns="http://www.w3.org/2000/svg" width="21" height="25" fill="none" viewBox="0 0 21 25">
    <path fill="#50AC51" stroke="#fff" stroke-width=".5" d="M20.16 4.188L10.863.328c-.233-.096-.495-.096-.728 0L.841 4.189c-.354.147-.585.493-.585.876v4.692c0 6.46 3.905 12.27 9.886 14.712.23.093.487.093.716 0 5.981-2.442 9.886-8.253 9.886-14.712V5.064c0-.383-.23-.729-.585-.876zm-1.313 5.568c0 5.491-3.225 10.547-8.347 12.803-4.985-2.196-8.347-7.163-8.347-12.803V5.697L10.5 2.232l8.347 3.465v4.059zm-9.395 3.197l4.076-4.077c.37-.37.971-.37 1.342 0 .37.37.37.97 0 1.341l-4.748 4.748c-.37.37-.97.37-1.341 0l-2.65-2.651c-.371-.37-.371-.971 0-1.341.37-.37.97-.37 1.34 0l1.98 1.98z"/>
</svg>
