<svg xmlns="http://www.w3.org/2000/svg" width="70" height="70" fill="none" viewBox="0 0 70 70">
    <path fill="url(#prefix__paint0_linear)" fill-rule="evenodd" d="M69.992 3.549c.136 2.092-1.449 3.899-3.54 4.035l-45.785 2.991c-3.41.271-10.636 2.914-12.506 11.03-.854 3.707-.784 9.214.468 15.102l27.453-1.788c2.092-.136 3.898 1.45 4.035 3.542.136 2.092-1.45 3.898-3.542 4.034L10.83 44.172c3.41 8.892 9.299 16.061 17.32 17.752 3.154.666 6.87-.527 11.047-3.772 4.125-3.204 8.153-8.009 11.637-13.302 3.467-5.27 6.264-10.824 7.996-15.354.7-1.83 1.202-3.43 1.51-4.732l-32.769 1.774c-2.093.114-3.882-1.491-3.995-3.585-.114-2.093 1.491-3.882 3.585-3.996l36.846-1.995c1.51-.081 2.926.742 3.602 2.096.553 1.108.677 2.284.686 3.192.009.965-.11 1.988-.3 3.007-.38 2.041-1.107 4.425-2.073 6.951-1.94 5.07-4.994 11.112-8.746 16.815-3.737 5.679-8.298 11.223-13.322 15.125-4.972 3.862-10.965 6.535-17.271 5.205C13.005 66.49 5.302 53.493 2.04 41.715-.117 33.919-.6 25.807.763 19.901 3.669 7.286 14.875 3.407 20.103 3.004L20.149 3 65.956.008c2.092-.136 3.9 1.449 4.036 3.54z" clip-rule="evenodd"/>
    <defs>
        <linearGradient id="prefix__paint0_linear" x1="35" x2="35" y1="0" y2="69.699" gradientUnits="userSpaceOnUse">
            <stop stop-color="#F2F2F2"/>
            <stop offset="1" stop-color="#AFAFAF"/>
        </linearGradient>
    </defs>
</svg>
