<svg xmlns="http://www.w3.org/2000/svg" width="58" height="42" fill="none" viewBox="0 0 58 42">
    <g filter="url(#prefix__filter0_d)">
        <rect width="50" height="33.333" x="4" y="2" fill="#25316D" rx="4"/>
    </g>
    <path fill="#fff" d="M13.86 15.079l2.629 8.98 3.106-.002 4.623-10.75h-3.11l-2.875 7.344-.307-1.109c-.567-1.335-2.176-3.254-4.066-4.464zM23.568 24.067h2.935l1.837-10.772h-2.936l-1.836 10.772zM28.34 23.653c.688.301 1.956.562 3.271.575 3.087 0 5.09-1.443 5.113-3.678.01-1.225-.773-2.158-2.466-2.926-1.027-.5-1.655-.832-1.65-1.336 0-.448.534-.927 1.683-.927.961-.014 1.656.195 2.197.413l.265.124.396-2.335c-.254-.095-.57-.193-.94-.274-.48-.104-1.048-.178-1.689-.178-2.9 0-4.946 1.46-4.962 3.554-.018 1.547 1.457 2.41 2.572 2.925 1.143.529 1.526.866 1.52 1.337-.007.722-.911 1.052-1.754 1.052-1.175 0-1.8-.163-2.764-.565l-.379-.172-.413 2.41z"/>
    <path fill="#fff" fill-rule="evenodd" d="M43.975 22.457c.089.376.356 1.614.356 1.614h2.724L44.68 13.306h-2.268c-.704 0-1.229.192-1.538.893l-4.358 9.871h3.082s.503-1.328.617-1.619l3.76.005zm-1.357-6.246l.197.929.68 3.11h-2.437l1.17-3.01c-.017.028.24-.623.39-1.029z" clip-rule="evenodd"/>
    <path fill="#EFA841" d="M15.533 13.203h-4.55l-.039.216c3.542.858 5.885 2.93 6.858 5.419l-.99-4.76c-.17-.656-.665-.851-1.28-.875z"/>
    <defs>
        <filter id="prefix__filter0_d" width="58" height="41.333" x="0" y="0" color-interpolation-filters="sRGB" filterUnits="userSpaceOnUse">
            <feFlood flood-opacity="0" result="BackgroundImageFix"/>
            <feColorMatrix in="SourceAlpha" values="0 0 0 0 0 0 0 0 0 0 0 0 0 0 0 0 0 0 127 0"/>
            <feOffset dy="2"/>
            <feGaussianBlur stdDeviation="2"/>
            <feColorMatrix values="0 0 0 0 0 0 0 0 0 0 0 0 0 0 0 0 0 0 0.15 0"/>
            <feBlend in2="BackgroundImageFix" result="effect1_dropShadow"/>
            <feBlend in="SourceGraphic" in2="effect1_dropShadow" result="shape"/>
        </filter>
    </defs>
</svg>
